<svg width="19" height="37" viewBox="0 0 19 37" fill="none" xmlns="http://www.w3.org/2000/svg">
<mask id="path-1-inside-1_1807_13651" fill="white">
<path fill-rule="evenodd" clip-rule="evenodd" d="M11 18.8822C15.534 18.1631 19 14.2363 19 9.5C19 4.25329 14.7467 0 9.5 0C4.25329 0 0 4.25329 0 9.5C0 14.2363 3.46602 18.1631 8 18.8822V35.5C8 36.3284 8.67157 37 9.5 37C10.3284 37 11 36.3284 11 35.5V18.8822Z"/>
</mask>
<path fill-rule="evenodd" clip-rule="evenodd" d="M11 18.8822C15.534 18.1631 19 14.2363 19 9.5C19 4.25329 14.7467 0 9.5 0C4.25329 0 0 4.25329 0 9.5C0 14.2363 3.46602 18.1631 8 18.8822V35.5C8 36.3284 8.67157 37 9.5 37C10.3284 37 11 36.3284 11 35.5V18.8822Z" fill="#7CA3FF"/>
<path d="M11 18.8822L10.8433 17.8946L10 18.0284V18.8822H11ZM8 18.8822H9V18.0284L8.15666 17.8946L8 18.8822ZM18 9.5C18 13.7368 14.8992 17.2513 10.8433 17.8946L11.1567 19.8699C16.1687 19.0749 20 14.7358 20 9.5H18ZM9.5 1C14.1944 1 18 4.80558 18 9.5H20C20 3.70101 15.299 -1 9.5 -1V1ZM1 9.5C1 4.80558 4.80558 1 9.5 1V-1C3.70101 -1 -1 3.70101 -1 9.5H1ZM8.15666 17.8946C4.10077 17.2513 1 13.7368 1 9.5H-1C-1 14.7358 2.83127 19.0749 7.84334 19.8699L8.15666 17.8946ZM9 35.5V18.8822H7V35.5H9ZM9.5 36C9.22386 36 9 35.7761 9 35.5H7C7 36.8807 8.11929 38 9.5 38V36ZM10 35.5C10 35.7761 9.77614 36 9.5 36V38C10.8807 38 12 36.8807 12 35.5H10ZM10 18.8822V35.5H12V18.8822H10Z" fill="#375CB0" mask="url(#path-1-inside-1_1807_13651)"/>
</svg>
